<?xml version="1.0" encoding="UTF-8" standalone="no"?><!DOCTYPE svg PUBLIC "-//W3C//DTD SVG 1.1//EN" "http://www.w3.org/Graphics/SVG/1.1/DTD/svg11.dtd"><svg width="100%" height="100%" viewBox="0 0 182 125" version="1.1" xmlns="http://www.w3.org/2000/svg" xmlns:xlink="http://www.w3.org/1999/xlink" xml:space="preserve" xmlns:serif="http://www.serif.com/" style="fill-rule:evenodd;clip-rule:evenodd;stroke-linejoin:round;stroke-miterlimit:1.41421;"><g id="Home"><g><g><path d="M37.808,124.363l0,-12.166l-0.08,-0.099l0,-20.89l53.111,-42.903l0,0l53.112,42.903l0,20.89l-0.081,0.099l0,12.166l-18.693,0l0,-24.367l-34.338,-27.738l-34.338,27.738l0,24.367l-18.693,0Z" style="fill:#fff;"/><path d="M75.365,124.363l0.025,-16.266l15.449,-12.48l0,0l15.391,12.432l-0.062,16.314l-30.803,0Z" style="fill:#fff;"/><path d="M0.237,124.363l0,-29.541l-0.08,-0.1l0,-20.889l90.682,-73.252l0,0l90.682,73.252l0,20.889l-0.08,0.1l0,29.541l-18.693,0l0,-41.743l-71.909,-58.087l-71.909,58.087l0,41.743l-18.693,0Z" style="fill:#fff;fill-opacity:0.607843;"/><g><path d="M276.928,-91.465l0,264.957l-185.979,0l0,-264.957l185.979,0Zm-322.757,143.268l1.377,96.167l112.029,-0.265l0.601,-42.177l-114.007,-53.725Z" style="fill:#005b80;fill-opacity:0.184314;"/><path d="M223.586,53.793l-1.378,96.167l-112.029,-0.266l-0.601,-42.177l114.008,-53.724Z" style="fill:#005b80;fill-opacity:0.192157;"/></g></g><path d="M748.324,-180.309l-386.014,914.213l383.401,-17.204l2.613,-897.009Z" style="fill-opacity:0.0705882;"/></g></g></svg>