<?xml version="1.0" encoding="UTF-8" standalone="no"?><!DOCTYPE svg PUBLIC "-//W3C//DTD SVG 1.1//EN" "http://www.w3.org/Graphics/SVG/1.1/DTD/svg11.dtd"><svg width="100%" height="100%" viewBox="0 0 140 29" version="1.1" xmlns="http://www.w3.org/2000/svg" xmlns:xlink="http://www.w3.org/1999/xlink" xml:space="preserve" xmlns:serif="http://www.serif.com/" style="fill-rule:evenodd;clip-rule:evenodd;stroke-linejoin:round;stroke-miterlimit:2;"><g id="Header"><g id="White"><g transform="matrix(1.01802,0,0,1.01802,-240.486,-138.125)"><g transform="matrix(16,0,0,16,282.346,156.388)"><path d="M0.091,-0.708l0.445,0l0,0.09l-0.349,0l0,0.222l0.325,0l0,0.09l-0.325,0l0,0.306l-0.096,0l0,-0.708Z" style="fill:#fff;fill-rule:nonzero;"/></g><g transform="matrix(16,0,0,16,291.05,156.388)"><path d="M0.141,-0.237c0,0.024 0.004,0.046 0.011,0.067c0.007,0.02 0.018,0.037 0.031,0.052c0.013,0.014 0.03,0.025 0.049,0.034c0.019,0.008 0.041,0.012 0.065,0.012c0.024,0 0.046,-0.004 0.065,-0.012c0.019,-0.009 0.036,-0.02 0.049,-0.035c0.013,-0.014 0.024,-0.031 0.031,-0.052c0.007,-0.02 0.011,-0.042 0.011,-0.066c0,-0.024 -0.004,-0.046 -0.011,-0.066c-0.007,-0.021 -0.018,-0.038 -0.031,-0.052c-0.013,-0.015 -0.03,-0.026 -0.049,-0.034c-0.019,-0.009 -0.041,-0.013 -0.065,-0.013c-0.024,0 -0.046,0.004 -0.065,0.013c-0.019,0.008 -0.036,0.019 -0.049,0.034c-0.013,0.014 -0.024,0.031 -0.031,0.051c-0.007,0.021 -0.011,0.043 -0.011,0.067Zm-0.096,0c0,-0.035 0.006,-0.067 0.019,-0.097c0.013,-0.03 0.031,-0.056 0.054,-0.079c0.023,-0.023 0.049,-0.041 0.08,-0.054c0.031,-0.013 0.064,-0.019 0.099,-0.019c0.035,0 0.068,0.007 0.099,0.019c0.031,0.013 0.057,0.031 0.08,0.054c0.023,0.023 0.041,0.049 0.053,0.079c0.013,0.03 0.02,0.062 0.02,0.097c0,0.035 -0.007,0.067 -0.02,0.097c-0.012,0.031 -0.03,0.057 -0.053,0.079c-0.023,0.023 -0.049,0.04 -0.08,0.053c-0.031,0.013 -0.064,0.02 -0.099,0.02c-0.035,0 -0.068,-0.007 -0.099,-0.02c-0.031,-0.013 -0.057,-0.03 -0.08,-0.053c-0.023,-0.022 -0.041,-0.048 -0.054,-0.079c-0.013,-0.03 -0.019,-0.062 -0.019,-0.097Z" style="fill:#fff;fill-rule:nonzero;"/></g><g transform="matrix(16,0,0,16,300.074,156.388)"><rect x="0.075" y="-0.756" width="0.09" height="0.756" style="fill:#fff;fill-rule:nonzero;"/></g><g transform="matrix(16,0,0,16,303.434,156.388)"><rect x="0.075" y="-0.756" width="0.09" height="0.756" style="fill:#fff;fill-rule:nonzero;"/></g><g transform="matrix(16,0,0,16,306.794,156.388)"><path d="M0.141,-0.237c0,0.024 0.004,0.046 0.011,0.067c0.007,0.02 0.018,0.037 0.031,0.052c0.013,0.014 0.03,0.025 0.049,0.034c0.019,0.008 0.041,0.012 0.065,0.012c0.024,0 0.046,-0.004 0.065,-0.012c0.019,-0.009 0.036,-0.02 0.049,-0.035c0.013,-0.014 0.024,-0.031 0.031,-0.052c0.007,-0.02 0.011,-0.042 0.011,-0.066c0,-0.024 -0.004,-0.046 -0.011,-0.066c-0.007,-0.021 -0.018,-0.038 -0.031,-0.052c-0.013,-0.015 -0.03,-0.026 -0.049,-0.034c-0.019,-0.009 -0.041,-0.013 -0.065,-0.013c-0.024,0 -0.046,0.004 -0.065,0.013c-0.019,0.008 -0.036,0.019 -0.049,0.034c-0.013,0.014 -0.024,0.031 -0.031,0.051c-0.007,0.021 -0.011,0.043 -0.011,0.067Zm-0.096,0c0,-0.035 0.006,-0.067 0.019,-0.097c0.013,-0.03 0.031,-0.056 0.054,-0.079c0.023,-0.023 0.049,-0.041 0.08,-0.054c0.031,-0.013 0.064,-0.019 0.099,-0.019c0.035,0 0.068,0.007 0.099,0.019c0.031,0.013 0.057,0.031 0.08,0.054c0.023,0.023 0.041,0.049 0.053,0.079c0.013,0.03 0.02,0.062 0.02,0.097c0,0.035 -0.007,0.067 -0.02,0.097c-0.012,0.031 -0.03,0.057 -0.053,0.079c-0.023,0.023 -0.049,0.04 -0.08,0.053c-0.031,0.013 -0.064,0.02 -0.099,0.02c-0.035,0 -0.068,-0.007 -0.099,-0.02c-0.031,-0.013 -0.057,-0.03 -0.08,-0.053c-0.023,-0.022 -0.041,-0.048 -0.054,-0.079c-0.013,-0.03 -0.019,-0.062 -0.019,-0.097Z" style="fill:#fff;fill-rule:nonzero;"/></g><g transform="matrix(16,0,0,16,315.818,156.388)"><path d="M0.011,-0.474l0.101,0l0.107,0.354l0.002,0l0.113,-0.354l0.095,0l0.12,0.354l0.002,0l0.102,-0.354l0.095,0l-0.153,0.474l-0.091,0l-0.125,-0.354l-0.002,0l-0.113,0.354l-0.097,0l-0.156,-0.474Z" style="fill:#fff;fill-rule:nonzero;"/></g><g transform="matrix(16,0,0,16,327.482,156.388)"><path d="M0.313,-0.708l0.087,0l0.303,0.708l-0.112,0l-0.071,-0.175l-0.337,0l-0.07,0.175l-0.112,0l0.312,-0.708Zm0.172,0.449l-0.132,-0.325l-0.002,0l-0.134,0.325l0.268,0Z" style="fill:#fff;fill-opacity:0.51;fill-rule:nonzero;"/></g><g transform="matrix(16,0,0,16,338.266,156.388)"><rect x="0.075" y="-0.756" width="0.09" height="0.756" style="fill:#fff;fill-opacity:0.51;fill-rule:nonzero;"/></g><g transform="matrix(16,0,0,16,341.626,156.388)"><path d="M0.141,-0.237c0,0.024 0.004,0.046 0.011,0.067c0.007,0.02 0.018,0.037 0.031,0.052c0.013,0.014 0.03,0.025 0.049,0.034c0.019,0.008 0.041,0.012 0.065,0.012c0.024,0 0.046,-0.004 0.065,-0.012c0.019,-0.009 0.036,-0.02 0.049,-0.035c0.013,-0.014 0.024,-0.031 0.031,-0.052c0.007,-0.02 0.011,-0.042 0.011,-0.066c0,-0.024 -0.004,-0.046 -0.011,-0.066c-0.007,-0.021 -0.018,-0.038 -0.031,-0.052c-0.013,-0.015 -0.03,-0.026 -0.049,-0.034c-0.019,-0.009 -0.041,-0.013 -0.065,-0.013c-0.024,0 -0.046,0.004 -0.065,0.013c-0.019,0.008 -0.036,0.019 -0.049,0.034c-0.013,0.014 -0.024,0.031 -0.031,0.051c-0.007,0.021 -0.011,0.043 -0.011,0.067Zm-0.096,0c0,-0.035 0.006,-0.067 0.019,-0.097c0.013,-0.03 0.031,-0.056 0.054,-0.079c0.023,-0.023 0.049,-0.041 0.08,-0.054c0.031,-0.013 0.064,-0.019 0.099,-0.019c0.035,0 0.068,0.007 0.099,0.019c0.031,0.013 0.057,0.031 0.08,0.054c0.023,0.023 0.041,0.049 0.053,0.079c0.013,0.03 0.02,0.062 0.02,0.097c0,0.035 -0.007,0.067 -0.02,0.097c-0.012,0.031 -0.03,0.057 -0.053,0.079c-0.023,0.023 -0.049,0.04 -0.08,0.053c-0.031,0.013 -0.064,0.02 -0.099,0.02c-0.035,0 -0.068,-0.007 -0.099,-0.02c-0.031,-0.013 -0.057,-0.03 -0.08,-0.053c-0.023,-0.022 -0.041,-0.048 -0.054,-0.079c-0.013,-0.03 -0.019,-0.062 -0.019,-0.097Z" style="fill:#fff;fill-opacity:0.51;fill-rule:nonzero;"/></g><g transform="matrix(16,0,0,16,350.65,156.388)"><path d="M0.068,-0.474l0.09,0l0,0.073l0.002,0c0.011,-0.025 0.031,-0.046 0.059,-0.062c0.028,-0.015 0.06,-0.023 0.097,-0.023c0.023,0 0.045,0.004 0.066,0.011c0.021,0.007 0.039,0.017 0.054,0.032c0.016,0.015 0.029,0.034 0.038,0.057c0.009,0.023 0.014,0.05 0.014,0.081l0,0.305l-0.09,0l0,-0.28c0,-0.022 -0.003,-0.041 -0.009,-0.056c-0.006,-0.016 -0.014,-0.029 -0.024,-0.038c-0.01,-0.01 -0.022,-0.017 -0.034,-0.021c-0.013,-0.005 -0.027,-0.007 -0.041,-0.007c-0.019,0 -0.036,0.003 -0.052,0.009c-0.016,0.006 -0.03,0.016 -0.042,0.029c-0.012,0.013 -0.021,0.029 -0.028,0.049c-0.007,0.02 -0.01,0.044 -0.01,0.071l0,0.244l-0.09,0l0,-0.474Z" style="fill:#fff;fill-opacity:0.51;fill-rule:nonzero;"/></g><g transform="matrix(16,0,0,16,359.066,156.388)"><path d="M0.543,-0.004c0,0.036 -0.006,0.069 -0.019,0.099c-0.012,0.029 -0.029,0.055 -0.052,0.077c-0.023,0.021 -0.05,0.038 -0.082,0.05c-0.032,0.012 -0.067,0.018 -0.106,0.018c-0.045,0 -0.087,-0.006 -0.125,-0.019c-0.037,-0.013 -0.073,-0.035 -0.107,-0.066l0.061,-0.076c0.023,0.025 0.049,0.045 0.076,0.058c0.027,0.012 0.058,0.019 0.093,0.019c0.033,0 0.061,-0.005 0.083,-0.014c0.022,-0.01 0.039,-0.023 0.052,-0.038c0.014,-0.015 0.023,-0.033 0.028,-0.052c0.005,-0.02 0.008,-0.04 0.008,-0.06l0,-0.07l-0.003,0c-0.017,0.029 -0.041,0.05 -0.071,0.064c-0.029,0.013 -0.06,0.02 -0.093,0.02c-0.035,0 -0.067,-0.006 -0.097,-0.018c-0.029,-0.013 -0.055,-0.03 -0.076,-0.051c-0.021,-0.022 -0.038,-0.048 -0.05,-0.077c-0.012,-0.03 -0.018,-0.062 -0.018,-0.097c0,-0.035 0.006,-0.067 0.017,-0.098c0.011,-0.03 0.027,-0.056 0.048,-0.079c0.021,-0.023 0.047,-0.04 0.076,-0.053c0.03,-0.013 0.063,-0.019 0.1,-0.019c0.032,0 0.063,0.007 0.093,0.021c0.031,0.014 0.055,0.034 0.072,0.059l0.002,0l0,-0.068l0.09,0l0,0.47Zm-0.246,-0.398c-0.024,0 -0.046,0.004 -0.065,0.013c-0.019,0.008 -0.036,0.019 -0.049,0.034c-0.013,0.014 -0.024,0.031 -0.031,0.051c-0.007,0.021 -0.011,0.043 -0.011,0.067c0,0.048 0.014,0.086 0.042,0.115c0.028,0.029 0.066,0.044 0.114,0.044c0.048,0 0.086,-0.014 0.114,-0.044c0.028,-0.029 0.042,-0.067 0.042,-0.115c0,-0.024 -0.004,-0.046 -0.011,-0.067c-0.007,-0.02 -0.018,-0.037 -0.031,-0.051c-0.013,-0.015 -0.03,-0.026 -0.049,-0.035c-0.019,-0.008 -0.041,-0.012 -0.065,-0.012Z" style="fill:#fff;fill-opacity:0.51;fill-rule:nonzero;"/></g></g><g><g><path d="M18.073,14.165l5.048,4.078l0,1.985l-0.008,0.009l0,2.921l-1.777,0l0,-4.08l-3.263,-2.637l-3.264,2.637l0,4.08l-1.777,0l0,-2.921l-0.007,-0.009l0,-1.985l5.048,-4.078c0,0 0,0 0,0Z" style="fill:#fff;"/><path d="M18.073,9.629l8.619,6.962l0,1.986l-0.008,0.009l0,4.572l-1.777,0l0,-5.732l-6.834,-5.521l-6.835,5.521l0,5.732l-1.777,0l0,-4.572l-0.007,-0.009l0,-1.986l8.619,-6.962c0,0 0,0 0,0Z" style="fill:#fff;fill-opacity:0.69;"/><path d="M18.073,5.067l1.839,1.486l-0.003,0.004l10.323,8.339l0,1.986l-0.008,0.009l0,6.267l-1.776,0l0,-7.426l-10.375,-8.381l-10.375,8.381l0,7.426l-1.777,0l0,-6.267l-0.008,-0.009l0,-1.986l10.324,-8.339l-0.004,-0.004l1.84,-1.486c0,0 0,0 0,0Z" style="fill:#fff;fill-opacity:0.4;"/></g></g></g></g></svg>